<?xml version="1.0" standalone="no"?>
<!DOCTYPE svg PUBLIC "-//W3C//DTD SVG 20010904//EN"
 "http://www.w3.org/TR/2001/REC-SVG-20010904/DTD/svg10.dtd">
<svg version="1.0" xmlns="http://www.w3.org/2000/svg"
 width="192.000000pt" height="192.000000pt" viewBox="0 0 192.000000 192.000000"
 preserveAspectRatio="xMidYMid meet">

<g transform="translate(0.000000,192.000000) scale(0.100000,-0.100000)"
fill="#000000" stroke="none">
<path d="M722 1913 c153 -2 403 -2 555 0 153 1 28 2 -277 2 -305 0 -430 -1
-278 -2z"/>
<path d="M793 1873 c-75 -42 -136 -89 -149 -115 -8 -16 -19 -28 -25 -28 -12 0
-51 -89 -44 -100 8 -12 -16 -60 -26 -54 -13 8 -11 -11 5 -43 8 -15 22 -46 31
-68 l17 -40 13 30 c7 17 14 25 14 19 1 -6 12 -9 26 -6 15 2 25 0 25 -7 0 -6
-7 -11 -15 -11 -15 0 -32 -46 -21 -57 3 -3 13 0 21 7 14 12 16 10 13 -16 -3
-29 -3 -29 50 -28 61 2 74 11 106 74 l23 46 -58 18 c-72 21 -133 23 -156 5
-15 -13 -16 -11 -10 13 15 58 27 78 47 78 11 0 20 -4 20 -9 0 -6 20 -13 44
-16 32 -5 52 -2 77 11 25 13 54 17 112 16 78 -1 107 -12 107 -38 0 -7 9 -16
21 -19 31 -10 17 -16 -73 -32 -106 -18 -106 -18 -114 -26 -4 -3 1 -18 10 -31
9 -14 16 -34 16 -45 0 -20 25 -35 42 -25 5 3 18 -2 29 -12 24 -22 126 -27 122
-7 -2 7 8 15 22 19 14 3 25 12 25 20 0 8 7 14 16 14 11 0 14 5 9 18 -20 47 8
71 35 30 12 -20 30 -128 32 -195 0 -32 13 -29 28 7 11 26 10 33 -4 49 -14 16
-15 20 -2 30 11 10 17 8 25 -6 9 -16 10 -16 11 5 0 12 -4 22 -10 22 -17 0 -11
26 10 45 11 10 20 29 20 42 0 12 4 23 9 23 14 0 18 141 5 186 -8 27 -32 63
-67 98 -59 61 -57 60 -105 47 -20 -6 -30 -6 -27 0 4 5 15 9 27 9 17 0 18 2 8
15 -9 10 -29 15 -63 13 -36 -1 -53 3 -62 15 -7 10 -23 17 -36 16 -13 0 -58 2
-99 6 -62 5 -81 3 -107 -12z m-103 -437 c0 -2 -9 -6 -20 -9 -11 -3 -18 -1 -14
4 5 9 34 13 34 5z"/>
<path d="M1440 1685 c0 -48 4 -85 10 -85 5 0 9 35 7 85 -1 47 -5 85 -9 85 -5
0 -8 -38 -8 -85z"/>
<path d="M84 1718 c9 -12 16 -42 16 -65 l0 -43 129 0 c143 0 141 -1 141 68 l0
37 -127 0 c-90 1 -128 4 -131 13 -2 7 -13 12 -23 12 -19 0 -19 -2 -5 -22z"/>
<path d="M18 1703 c7 -3 16 -2 19 1 4 3 -2 6 -13 5 -11 0 -14 -3 -6 -6z"/>
<path d="M734 1274 c-10 -20 -33 -46 -51 -56 -36 -21 -41 -42 -19 -73 7 -11
16 -54 18 -95 4 -66 2 -79 -20 -114 -39 -63 -34 -115 24 -229 15 -31 24 -67
25 -100 1 -29 4 -62 8 -75 6 -22 8 -21 38 22 37 52 35 66 -14 109 -18 16 -33
34 -33 40 0 6 10 1 23 -11 30 -29 47 -28 47 2 0 23 5 25 66 31 48 6 68 4 74
-5 5 -9 9 -9 14 -1 4 6 42 34 84 63 133 88 218 174 207 208 -7 23 -25 27 -25
5 0 -29 -18 -14 -27 23 -9 38 -12 39 -64 26 -17 -4 -31 0 -42 10 -14 15 -14
20 -1 51 17 42 12 54 -45 110 -41 39 -50 41 -30 4 9 -18 8 -19 -18 -13 -38 9
-38 9 -23 44 11 27 11 34 -3 47 -15 15 -16 14 -10 -20 l6 -37 -49 -1 c-27 -1
-53 0 -59 1 -13 3 -45 7 -69 9 -15 1 -17 6 -12 31 8 40 1 38 -20 -6z m133
-110 c-3 -3 -12 -4 -19 -1 -8 3 -5 6 6 6 11 1 17 -2 13 -5z m42 -51 c7 -6 -12
-20 -38 -28 -15 -4 -21 -3 -17 3 8 13 -39 21 -81 15 -30 -5 -42 4 -27 20 7 6
155 -2 163 -10z m18 -93 c-2 -11 -16 -14 -57 -13 -140 6 -157 32 -18 29 64 -1
78 -4 75 -16z"/>
<path d="M1800 1103 c8 -3 21 -12 28 -21 10 -14 12 -13 12 6 0 18 -6 22 -27
21 -16 0 -21 -3 -13 -6z"/>
<path d="M1270 870 c0 -5 5 -10 10 -10 6 0 10 5 10 10 0 6 -4 10 -10 10 -5 0
-10 -4 -10 -10z"/>
<path d="M537 773 c-4 -3 -7 -26 -7 -51 0 -39 2 -43 15 -32 10 8 13 20 9 34
-4 12 -7 29 -6 39 1 19 -1 21 -11 10z"/>
<path d="M1730 705 c41 -30 94 -77 117 -103 l42 -47 0 70 c1 39 -2 80 -5 92
-7 25 -20 28 -149 38 l-80 6 75 -56z"/>
<path d="M957 712 c-10 -10 -14 -21 -11 -24 3 -4 -3 -9 -14 -12 -22 -7 -57
-54 -48 -63 3 -4 15 2 27 13 19 17 21 18 30 1 9 -16 12 -15 39 5 29 21 37 48
24 82 -8 21 -27 20 -47 -2z"/>
<path d="M590 668 c0 -14 -7 -32 -16 -39 -14 -12 -14 -14 3 -20 10 -4 30 -8
46 -8 37 -1 36 27 -3 64 l-30 29 0 -26z"/>
<path d="M1000 629 l-35 -30 33 18 c36 19 61 43 45 43 -5 0 -24 -14 -43 -31z"/>
<path d="M1329 68 c0 -7 -3 -25 -5 -40 -3 -16 0 -28 6 -28 5 0 10 18 10 40 0
22 -2 40 -5 40 -3 0 -5 -6 -6 -12z"/>
</g>
</svg>
